<?xml version="1.0" encoding="UTF-8" standalone="no"?>
<svg
   width="68.712402"
   height="38.065102"
   viewBox="0 0 68.712402 38.065102"
   fill="none"
   version="1.1"
   id="svg53"
   sodipodi:docname="logo.svg"
   inkscape:version="1.3.1 (91b66b0783, 2023-11-16)"
   xmlns:inkscape="http://www.inkscape.org/namespaces/inkscape"
   xmlns:sodipodi="http://sodipodi.sourceforge.net/DTD/sodipodi-0.dtd"
   xmlns="http://www.w3.org/2000/svg"
   xmlns:svg="http://www.w3.org/2000/svg">
  <sodipodi:namedview
     id="namedview53"
     pagecolor="#ffffff"
     bordercolor="#000000"
     borderopacity="0.25"
     inkscape:showpageshadow="2"
     inkscape:pageopacity="0.0"
     inkscape:pagecheckerboard="0"
     inkscape:deskcolor="#d1d1d1"
     inkscape:zoom="5.2288686"
     inkscape:cx="34.233027"
     inkscape:cy="28.973763"
     inkscape:window-width="1920"
     inkscape:window-height="1009"
     inkscape:window-x="1912"
     inkscape:window-y="-8"
     inkscape:window-maximized="1"
     inkscape:current-layer="svg53" />
  <g
     id="g76"
     transform="translate(-41.6436)">
    <path
       d="M 65.2238,9.86621 64.9963,10.4474 64.875,10.3915 c 0.112,-0.1782 0.2286,-0.3529 0.3488,-0.52412 z"
       fill="url(#paint0_linear_5_18856)"
       id="path1"
       style="fill:url(#paint0_linear_5_18856)"
       clip-path="url(#clipPath74)" />
    <path
       d="M 100.992,6.47952 98.4246,7.88654 C 96.7425,4.82557 93.5265,2.92353 90.034,2.92353 c -3.9707,0 -7.469,2.38541 -8.9119,6.07651 L 80.5563,10.4467 79.1449,9.79673 C 78.0764,9.30521 76.9321,9.05478 75.7434,9.05478 c -4.4851,0 -8.1339,3.64332 -8.1339,8.12182 0,0.6919 0.0863,1.3779 0.2578,2.0406 l 0.434,1.6726 -1.7229,0.1503 c -3.615,0.3168 -6.4472,3.4069 -6.4472,7.0363 0,2.114 0.9343,4.0137 2.4134,5.3089 h -3.8085 c -0.9717,-1.5386 -1.534,-3.3592 -1.534,-5.3089 0,-2.5136 0.9391,-4.9165 2.6433,-6.7649 1.3286,-1.4408 3.0317,-2.4483 4.9027,-2.9189 -0.0443,-0.403 -0.0665,-0.8083 -0.0665,-1.216 0,-6.0905 4.9623,-11.04534 11.0618,-11.04534 1.1187,0 2.2093,0.16306 3.2569,0.4857 C 79.9288,4.87099 81.2609,3.37079 82.908,2.22701 85.0065,0.769901 87.4701,0 90.034,0 c 4.5622,0 8.7615,2.48325 10.959,6.47952 z"
       fill="url(#paint1_linear_5_18856)"
       id="path2"
       style="fill:url(#paint1_linear_5_18856)"
       clip-path="url(#clipPath73)" />
    <path
       d="m 109.059,24.7462 c 0.378,1.0658 0.569,2.1828 0.569,3.3301 0,5.5069 -4.487,9.9877 -10.0023,9.9877 H 94.835 c 1.3041,-0.6942 2.5137,-1.5852 3.5881,-2.6591 0.0875,-0.0874 0.1738,-0.1759 0.2589,-0.2656 h 0.9425 c 3.9005,0 7.0735,-3.1693 7.0735,-7.0642 0,-0.9947 -0.203,-1.9556 -0.602,-2.856 l -0.315,-0.7105 0.413,-0.6581 c 0.806,-1.287 1.233,-2.7744 1.233,-4.3014 0,-3.0749 -1.708,-5.8529 -4.456,-7.2459 l 1.326,-2.60789 c 1.795,0.90969 3.307,2.29109 4.377,3.99509 1.101,1.7541 1.682,3.7796 1.682,5.8587 0,1.8217 -0.447,3.6026 -1.298,5.196 z"
       fill="url(#paint2_linear_5_18856)"
       id="path3"
       style="fill:url(#paint2_linear_5_18856)"
       clip-path="url(#clipPath72)" />
    <path
       d="M 80.7473,1.68074 C 79.9786,2.33999 79.2799,3.08193 78.6687,3.88678 77.3785,3.25781 75.9508,2.92469 74.474,2.92469 c -3.9707,0 -7.469,2.38541 -8.912,6.07651 L 65.2238,9.86662 64.9963,10.4478 64.875,10.3919 63.5849,9.7979 C 62.5164,9.30637 61.372,9.05595 60.1834,9.05595 c -4.2542,0 -7.8178,3.31485 -8.1129,7.54645 l -2.9221,-0.2039 c 0.1948,-2.7849 1.429,-5.3718 3.475,-7.28548 2.0565,-1.92301 4.7418,-2.98176 7.56,-2.98176 1.1186,0 2.2093,0.16306 3.2568,0.4857 C 64.3687,4.87099 65.7009,3.37079 67.3479,2.22701 69.4464,0.769901 71.9101,0 74.474,0 c 2.2385,0 4.3871,0.584706 6.2733,1.68074 z"
       fill="url(#paint3_linear_5_18856)"
       id="path4"
       style="fill:url(#paint3_linear_5_18856)"
       clip-path="url(#clipPath71)" />
    <path
       d="M 87.7535,38.0639 H 51.6462 c -5.5163,0 -10.0026,-4.4808 -10.0026,-9.9877 0,-1.9323 0.554,-3.8076 1.6015,-5.4231 1.0195,-1.5713 2.4532,-2.8234 4.1469,-3.6189 l 1.247,2.6463 c -2.4706,1.1601 -4.0676,3.6702 -4.0676,6.3957 0,3.8949 3.174,7.0642 7.0748,7.0642 h 36.1073 c 5.7368,0 10.4051,-4.6613 10.4051,-10.3896 0,-5.7282 -4.6683,-10.3896 -10.4051,-10.3896 -5.7367,0 -10.405,4.6614 -10.405,10.3896 h -2.9291 c 0,-3.556 1.387,-6.9 3.9054,-9.4147 2.5185,-2.5147 5.8675,-3.8996 9.4287,-3.8996 3.5613,0 6.9103,1.3849 9.4287,3.8996 2.5185,2.5147 3.9058,5.8587 3.9058,9.4147 0,3.556 -1.3873,6.9 -3.9058,9.4147 -2.5184,2.5147 -5.8674,3.8996 -9.4287,3.8996 z"
       fill="url(#paint4_linear_5_18856)"
       id="path5"
       style="fill:url(#paint4_linear_5_18856)"
       clip-path="url(#clipPath70)" />
    <path
       d="m 75.8834,31.319 c -2.4496,0 -4.442,-1.9894 -4.442,-4.4354 0,-2.446 1.9924,-4.4354 4.442,-4.4354 2.4496,0 4.442,1.9894 4.442,4.4354 0,2.446 -1.9924,4.4354 -4.442,4.4354 z m 0,-5.9449 c -0.8341,0 -1.513,0.6779 -1.513,1.5107 0,0.8328 0.6789,1.5107 1.513,1.5107 0.834,0 1.5129,-0.6779 1.5129,-1.5107 0,-0.8328 -0.6789,-1.5107 -1.5129,-1.5107 z"
       fill="url(#paint5_linear_5_18856)"
       id="path6"
       style="fill:url(#paint5_linear_5_18856)"
       clip-path="url(#clipPath69)" />
    <path
       d="m 50.0738,23.4674 c -2.4484,0 -4.442,-1.9894 -4.442,-4.4353 0,-2.446 1.9924,-4.4354 4.442,-4.4354 2.4496,0 4.442,1.9894 4.442,4.4354 0,2.4459 -1.9924,4.4353 -4.442,4.4353 z m 0,-5.9449 c -0.834,0 -1.5129,0.6779 -1.5129,1.5107 0,0.8328 0.6789,1.5107 1.5129,1.5107 0.834,0 1.5129,-0.6779 1.5129,-1.5107 0,-0.8328 -0.6789,-1.5107 -1.5129,-1.5107 z"
       fill="url(#paint6_linear_5_18856)"
       id="path7"
       style="fill:url(#paint6_linear_5_18856)"
       clip-path="url(#clipPath68)" />
    <path
       d="m 100.859,14.36 c -2.4485,0 -4.442,-1.9894 -4.442,-4.43537 0,-2.44598 1.9924,-4.43537 4.442,-4.43537 2.45,0 4.442,1.98939 4.442,4.43537 0,2.44597 -1.992,4.43537 -4.442,4.43537 z m 0,-5.94488 c -0.834,0 -1.513,0.67788 -1.513,1.51068 0,0.8328 0.679,1.5107 1.513,1.5107 0.834,0 1.513,-0.6779 1.513,-1.5107 0,-0.8328 -0.679,-1.51068 -1.513,-1.51068 z"
       fill="url(#paint7_linear_5_18856)"
       id="path8"
       style="fill:url(#paint7_linear_5_18856)"
       clip-path="url(#clipPath67)" />
  </g>
  <defs
     id="defs53">
    <linearGradient
       id="paint0_linear_5_18856"
       x1="35.790501"
       y1="-0.92987102"
       x2="117.471"
       y2="30.049999"
       gradientUnits="userSpaceOnUse"
       gradientTransform="translate(41.6436)">
      <stop
         stop-color="#0093FE"
         id="stop21" />
      <stop
         offset="0.42"
         stop-color="#01B9E3"
         id="stop22" />
      <stop
         offset="1"
         stop-color="#04F6BB"
         id="stop23" />
    </linearGradient>
    <linearGradient
       id="paint1_linear_5_18856"
       x1="34.9305"
       y1="1.3406301"
       x2="116.61"
       y2="32.319599"
       gradientUnits="userSpaceOnUse"
       gradientTransform="translate(41.6436)">
      <stop
         stop-color="#0093FE"
         id="stop24" />
      <stop
         offset="0.42"
         stop-color="#01B9E3"
         id="stop25" />
      <stop
         offset="1"
         stop-color="#04F6BB"
         id="stop26" />
    </linearGradient>
    <linearGradient
       id="paint2_linear_5_18856"
       x1="35.561199"
       y1="-0.32272199"
       x2="117.241"
       y2="30.6563"
       gradientUnits="userSpaceOnUse"
       gradientTransform="translate(41.6436)">
      <stop
         stop-color="#0093FE"
         id="stop27" />
      <stop
         offset="0.42"
         stop-color="#01B9E3"
         id="stop28" />
      <stop
         offset="1"
         stop-color="#04F6BB"
         id="stop29" />
    </linearGradient>
    <linearGradient
       id="paint3_linear_5_18856"
       x1="36.171299"
       y1="-1.93232"
       x2="117.851"
       y2="29.0466"
       gradientUnits="userSpaceOnUse"
       gradientTransform="translate(41.6436)">
      <stop
         stop-color="#0093FE"
         id="stop30" />
      <stop
         offset="0.42"
         stop-color="#01B9E3"
         id="stop31" />
      <stop
         offset="1"
         stop-color="#04F6BB"
         id="stop32" />
    </linearGradient>
    <linearGradient
       id="paint4_linear_5_18856"
       x1="31.566299"
       y1="10.2112"
       x2="113.246"
       y2="41.190201"
       gradientUnits="userSpaceOnUse"
       gradientTransform="translate(41.6436)">
      <stop
         stop-color="#0093FE"
         id="stop33" />
      <stop
         offset="0.42"
         stop-color="#01B9E3"
         id="stop34" />
      <stop
         offset="1"
         stop-color="#04F6BB"
         id="stop35" />
    </linearGradient>
    <linearGradient
       id="paint5_linear_5_18856"
       x1="31.594299"
       y1="10.1356"
       x2="113.274"
       y2="41.114601"
       gradientUnits="userSpaceOnUse"
       gradientTransform="translate(41.6436)">
      <stop
         stop-color="#0093FE"
         id="stop36" />
      <stop
         offset="0.42"
         stop-color="#01B9E3"
         id="stop37" />
      <stop
         offset="1"
         stop-color="#04F6BB"
         id="stop38" />
    </linearGradient>
    <linearGradient
       id="paint6_linear_5_18856"
       x1="30.962099"
       y1="11.8048"
       x2="112.64"
       y2="42.783798"
       gradientUnits="userSpaceOnUse"
       gradientTransform="translate(41.6436)">
      <stop
         stop-color="#0093FE"
         id="stop39" />
      <stop
         offset="0.42"
         stop-color="#01B9E3"
         id="stop40" />
      <stop
         offset="1"
         stop-color="#04F6BB"
         id="stop41" />
    </linearGradient>
    <linearGradient
       id="paint7_linear_5_18856"
       x1="40.3522"
       y1="-12.9558"
       x2="122.032"
       y2="18.024401"
       gradientUnits="userSpaceOnUse"
       gradientTransform="translate(41.6436)">
      <stop
         stop-color="#0093FE"
         id="stop42" />
      <stop
         offset="0.42"
         stop-color="#01B9E3"
         id="stop43" />
      <stop
         offset="1"
         stop-color="#04F6BB"
         id="stop44" />
    </linearGradient>
    <linearGradient
       id="paint8_linear_5_18856"
       x1="2.0327301"
       y1="44.850201"
       x2="156.401"
       y2="44.850201"
       gradientUnits="userSpaceOnUse">
      <stop
         stop-color="#0093FE"
         id="stop45" />
      <stop
         offset="0.42"
         stop-color="#01B9E3"
         id="stop46" />
      <stop
         offset="1"
         stop-color="#04F6BB"
         id="stop47" />
    </linearGradient>
    <linearGradient
       id="paint9_linear_5_18856"
       x1="2.03297"
       y1="44.850201"
       x2="156.401"
       y2="44.850201"
       gradientUnits="userSpaceOnUse">
      <stop
         stop-color="#0093FE"
         id="stop48" />
      <stop
         offset="0.42"
         stop-color="#01B9E3"
         id="stop49" />
      <stop
         offset="1"
         stop-color="#04F6BB"
         id="stop50" />
    </linearGradient>
    <linearGradient
       id="paint10_linear_5_18856"
       x1="2.0329599"
       y1="44.850201"
       x2="156.401"
       y2="44.850201"
       gradientUnits="userSpaceOnUse">
      <stop
         stop-color="#0093FE"
         id="stop51" />
      <stop
         offset="0.42"
         stop-color="#01B9E3"
         id="stop52" />
      <stop
         offset="1"
         stop-color="#04F6BB"
         id="stop53" />
    </linearGradient>
    <clipPath
       clipPathUnits="userSpaceOnUse"
       id="clipPath54">
      <g
         id="g55">
        <rect
           width="152"
           height="58"
           fill="#ffffff"
           id="rect55"
           x="0"
           y="0" />
      </g>
    </clipPath>
    <clipPath
       clipPathUnits="userSpaceOnUse"
       id="clipPath55">
      <g
         id="g56">
        <rect
           width="152"
           height="58"
           fill="#ffffff"
           id="rect56"
           x="0"
           y="0" />
      </g>
    </clipPath>
    <clipPath
       clipPathUnits="userSpaceOnUse"
       id="clipPath56">
      <g
         id="g57">
        <rect
           width="152"
           height="58"
           fill="#ffffff"
           id="rect57"
           x="0"
           y="0" />
      </g>
    </clipPath>
    <clipPath
       clipPathUnits="userSpaceOnUse"
       id="clipPath57">
      <g
         id="g58">
        <rect
           width="152"
           height="58"
           fill="#ffffff"
           id="rect58"
           x="0"
           y="0" />
      </g>
    </clipPath>
    <clipPath
       clipPathUnits="userSpaceOnUse"
       id="clipPath58">
      <g
         id="g59">
        <rect
           width="152"
           height="58"
           fill="#ffffff"
           id="rect59"
           x="0"
           y="0" />
      </g>
    </clipPath>
    <clipPath
       clipPathUnits="userSpaceOnUse"
       id="clipPath59">
      <g
         id="g60">
        <rect
           width="152"
           height="58"
           fill="#ffffff"
           id="rect60"
           x="0"
           y="0" />
      </g>
    </clipPath>
    <clipPath
       clipPathUnits="userSpaceOnUse"
       id="clipPath60">
      <g
         id="g61">
        <rect
           width="152"
           height="58"
           fill="#ffffff"
           id="rect61"
           x="0"
           y="0" />
      </g>
    </clipPath>
    <clipPath
       clipPathUnits="userSpaceOnUse"
       id="clipPath61">
      <g
         id="g62">
        <rect
           width="152"
           height="58"
           fill="#ffffff"
           id="rect62"
           x="0"
           y="0" />
      </g>
    </clipPath>
    <clipPath
       clipPathUnits="userSpaceOnUse"
       id="clipPath62">
      <g
         id="g63">
        <rect
           width="152"
           height="58"
           fill="#ffffff"
           id="rect63"
           x="0"
           y="0" />
      </g>
    </clipPath>
    <clipPath
       clipPathUnits="userSpaceOnUse"
       id="clipPath63">
      <g
         id="g64">
        <rect
           width="152"
           height="58"
           fill="#ffffff"
           id="rect64"
           x="0"
           y="0" />
      </g>
    </clipPath>
    <clipPath
       clipPathUnits="userSpaceOnUse"
       id="clipPath64">
      <g
         id="g65">
        <rect
           width="152"
           height="58"
           fill="#ffffff"
           id="rect65"
           x="0"
           y="0" />
      </g>
    </clipPath>
    <clipPath
       clipPathUnits="userSpaceOnUse"
       id="clipPath65">
      <g
         id="g66">
        <rect
           width="152"
           height="58"
           fill="#ffffff"
           id="rect66"
           x="0"
           y="0" />
      </g>
    </clipPath>
    <clipPath
       clipPathUnits="userSpaceOnUse"
       id="clipPath66">
      <g
         id="g67">
        <rect
           width="152"
           height="58"
           fill="#ffffff"
           id="rect67"
           x="0"
           y="0" />
      </g>
    </clipPath>
    <clipPath
       clipPathUnits="userSpaceOnUse"
       id="clipPath67">
      <g
         id="g68">
        <rect
           width="152"
           height="58"
           fill="#ffffff"
           id="rect68"
           x="0"
           y="0" />
      </g>
    </clipPath>
    <clipPath
       clipPathUnits="userSpaceOnUse"
       id="clipPath68">
      <g
         id="g69">
        <rect
           width="152"
           height="58"
           fill="#ffffff"
           id="rect69"
           x="0"
           y="0" />
      </g>
    </clipPath>
    <clipPath
       clipPathUnits="userSpaceOnUse"
       id="clipPath69">
      <g
         id="g70">
        <rect
           width="152"
           height="58"
           fill="#ffffff"
           id="rect70"
           x="0"
           y="0" />
      </g>
    </clipPath>
    <clipPath
       clipPathUnits="userSpaceOnUse"
       id="clipPath70">
      <g
         id="g71">
        <rect
           width="152"
           height="58"
           fill="#ffffff"
           id="rect71"
           x="0"
           y="0" />
      </g>
    </clipPath>
    <clipPath
       clipPathUnits="userSpaceOnUse"
       id="clipPath71">
      <g
         id="g72">
        <rect
           width="152"
           height="58"
           fill="#ffffff"
           id="rect72"
           x="0"
           y="0" />
      </g>
    </clipPath>
    <clipPath
       clipPathUnits="userSpaceOnUse"
       id="clipPath72">
      <g
         id="g73">
        <rect
           width="152"
           height="58"
           fill="#ffffff"
           id="rect73"
           x="0"
           y="0" />
      </g>
    </clipPath>
    <clipPath
       clipPathUnits="userSpaceOnUse"
       id="clipPath73">
      <g
         id="g74">
        <rect
           width="152"
           height="58"
           fill="#ffffff"
           id="rect74"
           x="0"
           y="0" />
      </g>
    </clipPath>
    <clipPath
       clipPathUnits="userSpaceOnUse"
       id="clipPath74">
      <g
         id="g75">
        <rect
           width="152"
           height="58"
           fill="#ffffff"
           id="rect75"
           x="0"
           y="0" />
      </g>
    </clipPath>
  </defs>
</svg>
