<?xml version="1.0" standalone="no"?>
<!DOCTYPE svg PUBLIC "-//W3C//DTD SVG 20010904//EN"
 "http://www.w3.org/TR/2001/REC-SVG-20010904/DTD/svg10.dtd">
<svg version="1.0" xmlns="http://www.w3.org/2000/svg"
 width="1104.000000pt" height="1104.000000pt" viewBox="0 0 1104.000000 1104.000000"
 preserveAspectRatio="xMidYMid meet">
<metadata>
Created by potrace 1.14, written by Peter Selinger 2001-2017
</metadata>
<g transform="translate(0.000000,1104.000000) scale(0.100000,-0.100000)"
fill="#000000" stroke="none">
<path d="M5055 8568 c-27 -4 -68 -10 -90 -13 -22 -3 -51 -7 -65 -9 -50 -8
-197 -48 -285 -78 -132 -45 -425 -189 -425 -209 0 -5 -5 -9 -11 -9 -10 0 -106
-65 -119 -80 -3 -4 -30 -25 -60 -48 -75 -56 -254 -241 -318 -327 -28 -38 -55
-75 -60 -81 -5 -5 -15 -21 -22 -35 -7 -13 -16 -26 -20 -29 -3 -3 -21 -31 -39
-62 -18 -32 -36 -60 -41 -63 -5 -3 -29 0 -52 7 -24 6 -50 13 -58 14 -14 3 -35
7 -90 20 -14 3 -45 7 -70 10 -25 3 -61 7 -80 10 -42 6 -286 6 -350 0 -63 -6
-207 -30 -248 -42 -7 -2 -14 -4 -17 -4 -3 0 -20 -6 -39 -14 -19 -8 -36 -12
-39 -10 -2 2 -17 -2 -33 -11 -16 -8 -37 -15 -46 -15 -9 0 -29 -6 -45 -14 -15
-8 -46 -22 -68 -31 -22 -9 -49 -21 -60 -27 -11 -7 -33 -18 -50 -26 -51 -25
-150 -85 -153 -94 -2 -4 -8 -8 -14 -8 -8 0 -64 -38 -94 -65 -7 -5 -31 -26 -55
-45 -47 -37 -206 -198 -251 -253 -132 -163 -286 -466 -324 -638 -3 -13 -7 -31
-9 -39 -2 -8 -4 -18 -4 -22 -1 -5 -10 -8 -22 -8 -34 0 -130 -31 -189 -60 -109
-55 -227 -160 -283 -253 -11 -18 -22 -34 -26 -37 -12 -9 -61 -144 -75 -205
-13 -61 -15 -243 -3 -281 6 -18 -2 -28 -46 -62 -65 -49 -187 -168 -242 -237
-22 -28 -43 -51 -47 -53 -5 -2 -8 -10 -8 -17 0 -7 -3 -15 -8 -17 -13 -6 -90
-132 -136 -223 -36 -73 -100 -241 -111 -290 -1 -5 -7 -28 -13 -50 -6 -22 -13
-62 -17 -89 -3 -27 -9 -54 -12 -60 -10 -15 -12 -334 -3 -396 4 -30 11 -75 14
-100 8 -49 43 -193 55 -225 5 -11 19 -47 31 -80 37 -98 144 -301 170 -325 3
-3 17 -21 30 -40 49 -73 181 -214 262 -281 13 -10 28 -22 33 -27 153 -126 379
-240 586 -296 95 -25 119 -30 219 -44 74 -10 6145 -9 6240 1 41 4 83 10 92 13
9 3 32 6 50 8 18 2 62 11 98 21 36 9 74 19 85 21 71 14 352 120 382 145 7 7
13 8 13 3 0 -5 4 -4 8 2 4 5 23 18 42 27 19 10 44 23 55 30 127 80 191 121
195 126 3 3 23 19 45 36 53 39 61 46 94 75 221 198 370 386 498 630 19 35 37
69 41 75 4 5 7 16 8 23 1 7 12 32 24 55 12 23 24 48 26 57 4 15 51 161 62 190
8 24 10 32 22 80 12 46 13 51 24 110 3 19 8 44 10 55 22 112 29 467 12 600 -5
39 -10 81 -12 95 -1 14 -3 25 -4 25 -2 0 -6 21 -14 69 -3 21 -8 42 -11 46 -2
3 -6 20 -9 36 -3 17 -15 59 -27 95 -11 35 -22 71 -24 79 -2 8 -22 60 -44 114
-53 127 -128 268 -205 380 -78 114 -88 127 -106 147 -8 8 -35 39 -60 68 -59
70 -152 163 -214 214 -28 23 -58 50 -68 60 -10 9 -21 17 -26 17 -4 0 -18 10
-32 23 -14 12 -50 38 -80 57 -30 19 -57 37 -60 40 -23 24 -262 142 -373 183
-85 32 -248 80 -307 91 -14 2 -36 7 -50 10 -14 4 -41 8 -60 10 -19 3 -35 5
-35 6 0 1 -18 3 -40 5 -22 2 -65 6 -95 9 -64 6 -277 7 -335 1 -125 -11 -166
-17 -258 -36 -56 -11 -140 -32 -187 -46 -47 -15 -89 -27 -95 -29 -28 -6 -181
-71 -256 -109 -129 -65 -273 -156 -355 -224 -131 -108 -205 -178 -294 -277
-51 -57 -73 -85 -130 -164 -22 -30 -44 -60 -49 -66 -5 -6 -16 -24 -25 -40 -9
-16 -25 -42 -36 -59 -18 -29 -114 -220 -130 -260 -8 -19 -40 -105 -56 -150 -4
-11 -8 -24 -10 -30 -1 -5 -12 -45 -24 -87 -21 -76 -24 -90 -36 -158 -8 -44
-21 -70 -36 -70 -29 0 -164 -76 -222 -126 -62 -52 -156 -162 -156 -182 0 -5
-8 -20 -18 -33 -27 -36 -65 -149 -78 -232 -6 -39 -5 -176 1 -208 3 -13 8 -37
11 -53 2 -16 8 -34 12 -40 3 -6 8 -19 9 -28 13 -86 141 -261 250 -344 135
-103 341 -156 508 -133 126 18 182 37 284 98 185 109 311 302 338 516 38 292
-106 575 -363 716 -84 46 -81 37 -49 154 44 165 123 340 219 483 84 125 111
158 221 267 141 141 283 240 469 329 83 40 246 99 246 89 0 -3 6 -1 13 4 9 8
54 20 87 23 3 1 23 5 45 10 139 32 466 35 605 5 14 -3 39 -8 55 -11 17 -3 35
-7 40 -8 6 -2 24 -6 40 -10 124 -31 358 -131 434 -186 16 -11 34 -20 40 -20 6
0 11 -4 11 -10 0 -5 4 -10 10 -10 11 0 115 -77 169 -125 73 -65 163 -158 232
-242 32 -39 99 -142 99 -152 0 -6 4 -11 9 -11 5 0 11 -8 14 -17 4 -10 19 -40
36 -68 16 -27 27 -53 25 -56 -2 -4 3 -12 11 -19 8 -7 15 -19 15 -27 0 -7 9
-32 20 -53 11 -22 18 -40 14 -40 -4 0 -2 -6 3 -12 21 -27 77 -246 91 -356 14
-114 5 -452 -13 -505 -2 -6 -7 -23 -9 -37 -3 -14 -7 -36 -10 -50 -3 -14 -9
-38 -12 -55 -3 -16 -9 -34 -12 -40 -4 -5 -7 -16 -8 -22 -8 -51 -129 -319 -160
-354 -8 -8 -14 -18 -14 -22 0 -6 -60 -98 -70 -107 -3 -3 -18 -23 -35 -45 -63
-85 -250 -275 -271 -275 -4 0 -14 -8 -23 -18 -39 -43 -240 -162 -361 -215
-110 -48 -296 -102 -382 -112 -25 -3 -57 -9 -69 -13 -13 -4 -1394 -8 -3069 -9
-3350 -2 -3113 -6 -3305 59 -106 36 -192 77 -258 124 -26 19 -49 34 -52 34 -9
0 -66 52 -140 126 -158 159 -275 387 -311 609 -10 65 -10 295 0 360 10 59 48
195 70 247 9 21 16 40 17 43 2 18 97 173 138 225 35 44 135 147 178 183 21 18
22 18 75 -17 56 -37 168 -90 168 -80 0 4 6 2 12 -3 34 -27 228 -44 318 -28 52
9 141 34 177 51 17 8 34 14 37 14 4 0 12 5 19 10 7 6 37 26 67 47 62 41 166
143 175 173 4 11 10 20 14 20 12 0 68 120 91 195 41 131 32 323 -20 450 -5 11
-14 35 -22 53 -7 17 -16 32 -20 32 -5 0 -8 9 -8 20 0 11 -4 20 -8 20 -4 0 -15
13 -25 29 -25 43 -125 143 -179 179 -46 32 -46 32 -36 69 25 90 105 271 136
306 8 9 12 17 8 17 -4 0 -2 6 3 13 6 6 34 44 62 82 107 146 281 293 452 383
61 32 197 88 238 96 13 3 42 10 64 15 126 31 327 43 435 27 19 -3 57 -8 84
-12 27 -3 79 -15 115 -26 36 -10 73 -21 81 -23 19 -4 150 -61 263 -114 49 -22
90 -41 92 -41 1 0 6 12 10 28 3 15 12 41 20 57 7 17 28 68 46 115 59 154 138
298 227 414 82 106 291 306 320 306 6 0 12 4 14 8 4 11 104 74 155 100 21 10
47 23 58 30 35 20 124 56 170 69 6 1 48 13 95 27 83 24 102 28 205 43 62 9
331 9 404 -1 68 -8 230 -44 256 -55 11 -5 49 -19 85 -32 36 -13 76 -29 90 -36
32 -17 47 -16 57 1 22 38 79 102 186 210 64 66 117 123 117 128 0 8 -150 84
-235 119 -138 57 -296 101 -445 124 -25 4 -58 9 -75 12 -55 9 -409 10 -460 1z
m-3649 -2812 c34 -5 111 -49 132 -75 80 -101 74 -252 -15 -332 -70 -63 -131
-82 -216 -65 -187 36 -258 272 -123 407 34 34 111 73 125 64 5 -3 12 -1 15 3
3 5 16 8 28 6 13 -2 37 -5 54 -8z m4204 -1281 c80 -41 132 -127 131 -215 -1
-260 -344 -338 -457 -105 -37 78 -26 191 24 250 25 30 83 71 117 83 42 14 146
7 185 -13z"/>
<path d="M7588 8575 c-2 -2 -26 -7 -53 -10 -233 -30 -419 -84 -624 -182 -205
-98 -369 -212 -531 -368 -80 -77 -159 -166 -205 -229 -11 -16 -29 -40 -40 -55
-28 -36 -71 -102 -102 -159 -14 -26 -27 -48 -28 -50 -1 -1 -24 2 -51 9 -27 6
-56 12 -64 14 -8 2 -15 4 -15 5 0 5 -119 24 -225 36 -109 12 -384 5 -432 -10
-7 -3 -33 -7 -57 -10 -24 -3 -78 -15 -120 -27 -42 -12 -80 -22 -86 -24 -15 -3
-41 -13 -125 -46 -41 -16 -81 -29 -87 -29 -7 0 -13 -4 -13 -10 0 -5 -6 -10
-13 -10 -12 0 -206 -107 -217 -119 -3 -3 -25 -20 -50 -36 -103 -69 -253 -208
-338 -314 -20 -25 -42 -52 -49 -58 -10 -11 -70 -101 -118 -178 -84 -134 -172
-363 -209 -546 -25 -121 -28 -163 -30 -359 -1 -110 -5 -187 -11 -189 -6 -3
-28 -10 -50 -17 -133 -41 -312 -122 -386 -175 -15 -10 -32 -19 -37 -19 -6 0
-12 -3 -14 -7 -1 -5 -37 -33 -78 -64 -82 -61 -192 -166 -255 -243 -22 -27 -44
-54 -50 -60 -12 -13 -85 -122 -101 -151 -95 -171 -142 -290 -184 -465 -8 -35
-14 -63 -28 -150 -9 -57 -9 -325 0 -405 8 -68 14 -102 30 -160 5 -22 11 -47
13 -55 5 -28 55 -174 72 -210 27 -59 79 -163 99 -196 l18 -32 303 -1 c167 0
303 1 303 2 0 2 -30 34 -66 73 -156 164 -259 371 -299 604 -13 73 -13 306 -1
360 3 14 8 34 10 45 51 225 157 418 318 577 65 63 171 148 186 148 6 0 12 4
14 9 4 11 150 84 213 106 93 32 179 51 265 60 25 2 77 7 115 11 39 3 88 8 110
9 22 2 46 3 53 4 8 1 11 11 7 29 -5 31 -61 252 -75 297 -28 93 -32 426 -6 513
3 9 7 28 10 42 3 14 8 36 11 50 3 14 7 30 8 35 2 6 5 15 8 20 4 6 9 22 13 37
3 14 16 48 28 75 12 26 22 50 23 53 18 46 31 70 37 70 4 0 8 5 8 11 0 14 81
138 117 181 129 151 271 268 403 334 19 10 38 22 41 27 3 5 8 8 10 7 2 -1 18
4 34 11 17 7 32 13 35 13 3 1 10 4 15 7 25 16 164 55 255 74 85 17 300 22 395
10 87 -11 244 -54 328 -89 71 -29 247 -110 270 -123 7 -4 37 56 41 82 1 6 9
25 19 44 9 19 17 38 17 44 0 39 159 345 214 410 11 14 32 41 46 59 30 40 205
218 214 218 4 0 17 9 29 21 30 29 180 127 225 148 20 9 48 23 62 31 14 8 27
15 30 15 3 1 22 9 43 18 92 40 270 88 382 104 67 9 377 9 415 0 14 -4 41 -9
60 -11 142 -21 305 -77 465 -162 167 -88 350 -239 464 -384 41 -52 42 -55 24
-70 -64 -53 -152 -223 -176 -338 -15 -71 -17 -267 -4 -289 3 -5 8 -20 11 -34
7 -40 48 -142 67 -171 11 -14 19 -31 19 -37 0 -6 4 -11 9 -11 5 0 12 -8 15
-17 8 -25 113 -132 167 -169 80 -57 194 -106 280 -120 88 -16 227 -11 307 10
12 3 32 8 45 11 48 10 187 89 241 136 l56 50 32 -22 c59 -42 159 -139 220
-214 75 -92 187 -290 204 -361 4 -16 10 -33 14 -39 7 -10 27 -81 35 -123 2
-13 6 -31 9 -40 27 -94 28 -429 1 -504 -2 -7 -6 -24 -9 -38 -18 -109 -96 -294
-183 -433 l-49 -79 27 -56 c83 -177 118 -330 118 -522 1 -94 0 -100 -24 -245
-4 -22 -12 -49 -18 -60 -6 -11 -10 -22 -9 -25 8 -24 -90 -228 -155 -318 -50
-72 -197 -221 -257 -262 -21 -14 -44 -31 -52 -38 -8 -7 -14 -10 -14 -5 0 4 -4
3 -8 -3 -17 -27 -232 -120 -320 -139 -12 -3 -32 -7 -44 -10 -13 -3 -43 -8 -68
-11 -25 -3 -54 -7 -65 -9 -11 -2 -72 -4 -135 -4 l-115 -1 -76 -74 c-140 -134
-318 -269 -474 -357 l-60 -34 40 -3 c68 -6 918 5 950 12 241 53 216 46 312 80
158 54 352 167 492 284 79 66 117 105 191 192 30 36 57 67 60 70 3 3 19 25 35
50 16 25 32 47 35 50 16 16 60 102 148 290 9 19 17 44 19 54 2 11 10 40 19 65
14 40 33 124 48 206 9 50 18 176 18 250 0 102 -8 189 -28 310 -6 38 -40 164
-54 199 -8 21 -7 32 5 49 8 12 15 29 15 39 0 10 3 18 8 18 4 0 20 35 36 78 16
42 34 83 39 90 5 6 7 12 3 12 -3 0 0 17 8 38 8 20 18 51 22 67 4 17 8 35 10
40 11 41 34 160 40 205 10 71 11 391 1 450 -15 92 -18 106 -29 155 -7 28 -12
55 -13 60 -1 6 -4 17 -7 25 -3 8 -16 50 -29 93 -12 43 -27 80 -31 83 -4 3 -8
12 -8 21 0 32 -168 347 -200 373 -3 3 -21 25 -40 50 -53 69 -68 86 -161 179
-75 75 -239 211 -255 211 -17 0 -29 31 -27 75 10 282 -196 572 -473 669 -94
33 -123 38 -227 41 l-87 2 -46 62 c-25 35 -56 75 -69 90 -13 14 -33 37 -45 51
-60 72 -248 250 -264 250 -5 0 -16 8 -69 53 -44 37 -198 128 -309 180 -151 73
-296 121 -483 161 -11 3 -38 7 -60 10 -22 3 -51 8 -65 12 -27 7 -436 15 -442
9z m2000 -1359 c22 -5 72 -36 103 -66 29 -26 59 -95 63 -144 13 -152 -121
-282 -270 -261 -151 20 -247 171 -200 312 42 126 164 190 304 159z"/>
</g>
</svg>
